<svg xmlns="http://www.w3.org/2000/svg" xmlns:xlink="http://www.w3.org/1999/xlink" width="32" height="32" viewBox="0 0 69.572 69.576"><defs><style>.a{fill:#e8e8e9;}.a,.b,.c{fill-rule:evenodd;}.b{fill:url(#a);}.c{fill:#fff;}</style><linearGradient id="a" x1="0.5" y1="1" x2="0.5" gradientUnits="objectBoundingBox"><stop offset="0" stop-color="#5fac37"/><stop offset="0.232" stop-color="#5caa36"/><stop offset="0.353" stop-color="#54a436"/><stop offset="0.449" stop-color="#479a35"/><stop offset="0.525" stop-color="#368d35"/><stop offset="0.594" stop-color="#459835"/><stop offset="0.691" stop-color="#54a336"/><stop offset="0.807" stop-color="#5caa36"/><stop offset="1" stop-color="#5fac37"/></linearGradient></defs><g transform="translate(-213.837 -453.243)"><path class="a" d="M283.409,487.137a34.212,34.212,0,0,1-50.663,29.673l-18.909,6.008L220,504.636a33.526,33.526,0,0,1-4.9-17.5,34.154,34.154,0,0,1,68.306,0Z"/><path class="b" d="M253.2,461.814a28.639,28.639,0,0,0-28.712,28.5,28.178,28.178,0,0,0,5.469,16.705L226.37,517.6l11.032-3.508a28.569,28.569,0,1,0,15.8-52.277Z" transform="translate(-3.944 -3.175)"/><path class="c" d="M277.539,505.782c-.212-.352-.769-.558-1.6-.972s-4.958-2.426-5.724-2.7-1.33-.412-1.881.418-2.165,2.7-2.656,3.259-.972.62-1.811.206a23.117,23.117,0,0,1-6.736-4.122,25.275,25.275,0,0,1-4.657-5.751c-.485-.83-.048-1.284.367-1.7.378-.375.841-.968,1.257-1.453a5.823,5.823,0,0,0,.839-1.387,1.518,1.518,0,0,0-.07-1.454c-.209-.418-1.886-4.506-2.586-6.172s-1.39-1.381-1.88-1.381-1.045-.07-1.606-.07a3.088,3.088,0,0,0-2.229,1.039,9.273,9.273,0,0,0-2.931,6.926c0,4.086,3,8.041,3.419,8.592s5.788,9.219,14.3,12.544,8.513,2.213,10.048,2.074,4.955-2.008,5.648-3.949a6.917,6.917,0,0,0,.494-3.946Z" transform="translate(-11.035 -10.837)"/></g></svg>